<svg width="16" height="16" viewBox="0 0 16 16" fill="none" xmlns="http://www.w3.org/2000/svg">
<path fill-rule="evenodd" clip-rule="evenodd" d="M0.585787 3.41421C-0.195262 2.63317 -0.195262 1.36684 0.585786 0.585787C1.36684 -0.195262 2.63317 -0.195262 3.41421 0.585787L7.65685 4.82843L11.8995 0.585786C12.6805 -0.195262 13.9469 -0.195263 14.7279 0.585786C15.509 1.36683 15.509 2.63316 14.7279 3.41421L10.4853 7.65685L14.7279 11.8995C15.509 12.6805 15.509 13.9469 14.7279 14.7279C13.9469 15.509 12.6805 15.509 11.8995 14.7279L7.65685 10.4853L3.41421 14.7279C2.63317 15.509 1.36684 15.509 0.585786 14.7279C-0.195262 13.9469 -0.195262 12.6805 0.585786 11.8995L4.82843 7.65685L0.585787 3.41421ZM1.36398 14.0919C0.973454 13.7013 0.973454 13.0682 1.36398 12.6776L6.31372 7.7279L1.36398 2.77816C0.973456 2.38764 0.973455 1.75447 1.36398 1.36395C1.7545 0.973424 2.38767 0.973424 2.77819 1.36395L7.72793 6.31369L12.6777 1.36393C13.0682 0.973408 13.7014 0.973408 14.0919 1.36393C14.4824 1.75446 14.4824 2.38762 14.0919 2.77815L9.14215 7.7279L14.0919 12.6777C14.4824 13.0682 14.4824 13.7013 14.0919 14.0919C13.7014 14.4824 13.0682 14.4824 12.6777 14.0919L7.72793 9.14211L2.77819 14.0919C2.38767 14.4824 1.7545 14.4824 1.36398 14.0919Z" fill="#5081E8"/>
</svg>
