<svg width="225" height="25" viewBox="0 0 225 25" fill="none" xmlns="http://www.w3.org/2000/svg">
<path fill-rule="evenodd" clip-rule="evenodd" d="M35 0C29.4772 0 25 4.47714 25 9.99999V14.5098C25 20.0326 29.4772 24.5098 35 24.5098H117.593H210.185L214.006 24.6362C220.018 24.8352 225 20.0154 225 14C225 6.26801 218.732 0 211 0H210.185H35ZM15 13C15 15.7614 12.7614 18 10 18C7.23858 18 5 15.7614 5 13C5 10.2386 7.23858 8 10 8C12.7614 8 15 10.2386 15 13ZM20 13C20 18.5228 15.5228 23 10 23C4.47715 23 0 18.5228 0 13C0 7.47715 4.47715 3 10 3C15.5228 3 20 7.47715 20 13Z" fill="#5081E8"/>
</svg>
