<svg width="200" height="25" viewBox="0 0 200 25" fill="none" xmlns="http://www.w3.org/2000/svg">
    <path fill-rule="evenodd" clip-rule="evenodd" d="M10 0C4.47715 0 0 4.47714 0 9.99999V14.5098C0 20.0326 4.47716 24.5098 10 24.5098H92.5926H185.185L189.006 24.6362C195.018 24.8352 200 20.0154 200 14C200 6.26801 193.732 0 186 0H185.185H10ZM21 13C21 15.7614 18.7614 18 16 18C13.2386 18 11 15.7614 11 13C11 10.2386 13.2386 8 16 8C18.7614 8 21 10.2386 21 13ZM26 13C26 18.5228 21.5228 23 16 23C10.4772 23 6 18.5228 6 13C6 7.47715 10.4772 3 16 3C21.5228 3 26 7.47715 26 13Z" fill="#F4F4F4"/>
</svg>
